<svg xmlns="http://www.w3.org/2000/svg" viewBox="0 0 92.63 26"><defs><style>.a{fill:#fff;}</style></defs><title>logo_affinitic_texte_blanc</title><path class="a" d="M23.15,17.65h0L23,17.44a11.29,11.29,0,1,0-11.71,7.34l.11.18.18-.11L11.4,25a6.94,6.94,0,0,0,4.27,3.12,6.58,6.58,0,0,0,1.52.18,6.87,6.87,0,0,0,3.67-1.08A7.1,7.1,0,0,0,24,22.87,6.7,6.7,0,0,0,23.15,17.65Zm-2-3A1.4,1.4,0,0,1,22.56,16a1.42,1.42,0,0,1-.39,1,1.37,1.37,0,0,1-1,.43A1.4,1.4,0,0,1,19.79,16a1.42,1.42,0,0,1,.42-1A1.37,1.37,0,0,1,21.17,14.61ZM10.76,20.88a6.59,6.59,0,0,1,3.13-5.11,6.43,6.43,0,0,1,3.94-1A8,8,0,0,1,16.9,17a2.68,2.68,0,1,1-3.15,3A8,8,0,0,1,10.76,20.88ZM10,4.87a8,8,0,0,1,6.17,2.9A7.68,7.68,0,0,1,16,9a8,8,0,0,1-3.55,4.87,7.75,7.75,0,0,1-4.14,1.23A7.56,7.56,0,0,1,2.1,11.71,8,8,0,0,1,10,4.87Zm-8,8q0-.3,0-.59a7.91,7.91,0,0,0,6.29,3.18,8.16,8.16,0,0,0,4.36-1.29A8.38,8.38,0,0,0,16.4,9.07a8.17,8.17,0,0,0,.16-.84,8,8,0,0,1,1.36,6.15,6.82,6.82,0,0,0-4.24,1.05,7,7,0,0,0-3.32,5.47H10A8,8,0,0,1,2,12.9Zm21.61,9.88a6.7,6.7,0,0,1-3,4.05,6.35,6.35,0,0,1-4.88.85,6.53,6.53,0,0,1-4-2.87l.62,0A11.29,11.29,0,0,0,22.83,17.9,6.3,6.3,0,0,1,23.62,22.77Z" transform="translate(-1.12 -2.25)"/><path class="a" d="M16.35,22a2.29,2.29,0,0,0,.3-4.55,8.06,8.06,0,0,1-2.53,2.38A2.25,2.25,0,0,0,16.35,22Z" transform="translate(-1.12 -2.25)"/><path class="a" d="M24.36,18a1.1,1.1,0,1,0,1.1-1.09A1.09,1.09,0,0,0,24.36,18" transform="translate(-1.12 -2.25)"/><path class="a" d="M33.83,10.14h1.69l4,9.28H37.25l-.8-2h-3.6l-.77,2H29.82Zm.79,2.7-1.13,2.88h2.27Z" transform="translate(-1.12 -2.25)"/><path class="a" d="M40.56,10.14h6.23V12H42.61v1.89h3.87V15.8H42.61v3.62h-2Z" transform="translate(-1.12 -2.25)"/><path class="a" d="M48.34,10.14h6.23V12H50.38v1.89h3.87V15.8H50.38v3.62h-2Z" transform="translate(-1.12 -2.25)"/><path class="a" d="M56,10.14h2v9.28H56Z" transform="translate(-1.12 -2.25)"/><path class="a" d="M59.91,10.14h2.78l3.95,6.45h0V10.14h2v9.28H66L62,12.81h0v6.61h-2Z" transform="translate(-1.12 -2.25)"/><path class="a" d="M70.57,10.14h2v9.28h-2Z" transform="translate(-1.12 -2.25)"/><path class="a" d="M76.27,11.94H73.63V10.14H81v1.81H78.32v7.47h-2Z" transform="translate(-1.12 -2.25)"/><path class="a" d="M82,10.14h2v9.28H82Z" transform="translate(-1.12 -2.25)"/><path class="a" d="M92,12.55a2.19,2.19,0,0,0-1.76-.76,2.76,2.76,0,0,0-2.69,3,2.75,2.75,0,0,0,2.62,3,2.22,2.22,0,0,0,1.91-1L93.75,18a4.05,4.05,0,0,1-3.36,1.61,4.7,4.7,0,0,1-5-4.88,4.7,4.7,0,0,1,5-4.88,4,4,0,0,1,3.13,1.36Z" transform="translate(-1.12 -2.25)"/></svg>