<?xml version="1.0" encoding="utf-8"?>
<!-- Generator: Adobe Illustrator 21.1.0, SVG Export Plug-In . SVG Version: 6.00 Build 0)  -->
<svg version="1.1" id="logo" xmlns="http://www.w3.org/2000/svg" xmlns:xlink="http://www.w3.org/1999/xlink" x="0px" y="0px"
	 viewBox="0 0 66.8 86.6" style="enable-background:new 0 0 66.8 86.6;" xml:space="preserve">
<style type="text/css">
	.st0{fill:#FFFFFF;}
	.st1{fill:none;stroke:#028090;stroke-width:1.35;stroke-miterlimit:10;}
	.st2{fill:none;stroke:#028090;stroke-width:1.35;stroke-linecap:round;stroke-miterlimit:10;}
	.st3{fill:none;stroke:#028090;stroke-width:1.42;stroke-linecap:round;stroke-miterlimit:10;}
</style>
<g id="fill">
	<path id="forme" class="st0" d="M66.8,0H0v55.2l0,0v0.1c0,17.2,15,31.2,33.4,31.2s33.4-14,33.4-31.2v-0.1l0,0V0z"/>
</g>
<g id="stroke">
	<path class="st1" d="M63.4,3.4h-60v50.4l0,0v0.1c0,15.7,13.4,28.5,30,28.5s30-12.8,30-28.5v-0.1l0,0V3.4z"/>
	<path class="st2" d="M14.2,38.8c0,0-0.2,20.3,20.2,21.6c0,0-7.3-1.5-6.1,4.4c0.2,2.5,1.1,4.8,2.5,6.8c0,0,0.2,4.9,0.8,6.2
		c0.6,1.3,2.8,1.1,2.8,1.1"/>
	<path class="st2" d="M18.2,51.9c0,0,8.3,0.8,9.4-13.1"/>
	<path class="st2" d="M7.7,38.8c0,0,1.7,8.9,7.8,7.5"/>
	<path class="st2" d="M9.4,49.6c0,0,3.8,11.5,13.5,7.1"/>
	<path class="st2" d="M28.7,61.6c0,0-5.8-1.8-9.1,0.8c0.4,2.4,8.6,1.4,8.6,1.4"/>
	<path class="st2" d="M53.9,38.8c0,0,0.2,20.3-20.2,21.5c0,0,7.3-1.5,6.1,4.4c-0.2,2.5-1.1,4.8-2.5,6.8c0,0-0.2,4.9-0.8,6.2
		s-2.8,1.1-2.8,1.1"/>
	<path class="st2" d="M49.8,51.9c0,0-8.3,0.8-9.4-13.1"/>
	<path class="st2" d="M60.4,38.8c0,0-1.7,8.9-7.8,7.5"/>
	<path class="st2" d="M58.6,49.6c0,0-3.8,11.5-13.5,7.1"/>
	<path class="st2" d="M39.3,61.6c0,0,5.8-1.8,9.1,0.8c-0.4,2.4-8.6,1.4-8.6,1.4"/>
	<path class="st3" d="M23.4,15.1c3,1.1,3.9,6.2,2,11.3c-0.6,1.8-1.6,3.5-2.8,4.9c-1.9,2.1-4.1,3.2-6,2.5c-3-1.1-3.9-6.2-2-11.3
		S20.4,14,23.4,15.1z"/>
	<path class="st3" d="M52.5,24.5c-8.6,19.4-30,6.9-30,6.9"/>
	<path class="st3" d="M26.4,24.5c0,0,14,11.5,23.4-3.5"/>
	<path class="st3" d="M49.5,20.4c0,0,2.8-0.3,3.4,4.5"/>
	<path class="st3" d="M28.2,33.8c0,0,3.5,0.1,2.8-6.6"/>
	<path class="st3" d="M48.5,30.7c0.2-2-3.9-4.1-3.9-4.1l-12.5-16c0,0-2.2-4.7,2.3-5s5.3,2.4,3.7,5L28.8,26"/>
</g>
</svg>
