<?xml version="1.0" encoding="utf-8"?>
<!-- Generator: Adobe Illustrator 21.1.0, SVG Export Plug-In . SVG Version: 6.00 Build 0)  -->
<svg version="1.1" id="Capa_1" xmlns="http://www.w3.org/2000/svg" xmlns:xlink="http://www.w3.org/1999/xlink" x="0px" y="0px"
	 viewBox="0 0 512 512" style="enable-background:new 0 0 512 512;" xml:space="preserve">
<style type="text/css">
	.st0{fill:#1076CA;}
</style>
<g>
	<g>
		<path class="st0" d="M256,328.9c-26.7,0-48.8,19.2-53.2,44.8h106.4C304.8,348.2,282.7,328.9,256,328.9z"/>
		<circle class="st0" cx="311.3" cy="145.4" r="12.3"/>
		<path class="st0" d="M345.1,157.7c6.8,0,12.3-5.5,12.3-12.3c0-6.8-5.5-12.3-12.3-12.3c-6.8,0-12.3,5.5-12.3,12.3
			C332.8,152.2,338.3,157.7,345.1,157.7z"/>
		<circle class="st0" cx="378.9" cy="145.4" r="12.3"/>
		<path class="st0" d="M256,0C114.6,0,0,114.6,0,256s114.6,256,256,256c141.4,0,256-114.6,256-256S397.4,0,256,0z M409.6,375.8
			c0,10.2-8.3,18.4-18.4,18.4H120.8c-10.2,0-18.4-8.2-18.4-18.4V141.3c0-10.2,8.3-18.4,18.4-18.4h270.3c10.2,0,18.4,8.3,18.4,18.4
			L409.6,375.8L409.6,375.8z"/>
		<path class="st0" d="M122.9,365.8c0-6,2.8-12.5,8.8-12.5h19.6c2.6-10.2,6.5-18.4,11.6-27L149,312.7c-4.2-4.2-4.2-10.8,0-15.1
			l22.9-22.8c4.2-4.2,11.1-4.2,15.3,0.1l14.6,14c8.6-5.1,18.3-9,28.6-11.6v-19.6c0-6,3.4-11.8,9.4-11.8h32.4c6,0,9.4,5.9,9.4,11.8
			v19.6c10.2,2.6,20,6.5,28.6,11.6l14.3-13.9c4.2-4.2,11.2-4.2,15.5,0l23,23c4.2,4.2,4.3,11.1,0,15.3l-13.9,13.1
			c5.1,8.6,9.1,16.8,11.6,27h19.6c6,0,8.8,6.5,8.8,12.5V169H122.9V365.8z"/>
	</g>
</g>
</svg>
