<?xml version="1.0" encoding="utf-8"?>
<!-- Generator: Adobe Illustrator 21.1.0, SVG Export Plug-In . SVG Version: 6.00 Build 0)  -->
<svg version="1.1" id="Capa_1" xmlns="http://www.w3.org/2000/svg" xmlns:xlink="http://www.w3.org/1999/xlink" x="0px" y="0px"
	 viewBox="0 0 512 512" style="enable-background:new 0 0 512 512;" xml:space="preserve">
<style type="text/css">
	.st0{fill:#1076CA;}
</style>
<g>
	<g>
		<path class="st0" d="M256,0C114.6,0,0,114.6,0,256s114.6,256,256,256c141.4,0,256-114.6,256-256S397.4,0,256,0z M404.4,404.4
			c-6.9,6.9-18.2,6.9-25.1,0l-52.8-52.8c-5.1-5.1-6.5-12.7-4-19l-10-10c-49.5,44.3-125.7,42.6-173.2-4.9
			c-49.2-49.2-49.2-129.2,0-178.4c49.2-49.2,129.2-49.2,178.4,0c47.5,47.5,49.1,123.8,4.9,173.2l10,10c6.4-2.5,13.9-1.2,19,4
			l52.8,52.8C411.3,386.2,411.3,397.5,404.4,404.4z"/>
		<path class="st0" d="M239.7,164.5c-9.6,9.7-9.6,25.3,0,35c9.6,9.7,25.3,9.6,35,0c9.7-9.6,9.7-25.3,0-35
			C265.1,154.8,249.4,154.8,239.7,164.5z"/>
		<path class="st0" d="M302.6,154.4c-40.9-40.9-107.4-40.9-148.3,0c-40.9,40.9-40.9,107.4,0,148.3c40.9,40.9,107.4,40.9,148.3,0
			C343.5,261.8,343.5,195.2,302.6,154.4z M211.8,288.2l-4.6,13.6c-0.4,1.1-0.7,2-0.9,2.5c-0.2,0.5-0.6,1-1.1,1.4
			c-0.5,0.4-1.1,0.6-2,0.6c-0.9,0-1.5-0.2-2-0.7c-0.5-0.4-0.9-1-1.1-1.6c-0.2-0.6-0.5-1.4-0.8-2.4l-3.3-11.1l-3.1,11.1
			c-0.4,1.5-0.9,2.7-1.4,3.5c-0.5,0.8-1.3,1.2-2.6,1.2c-0.6,0-1.2-0.1-1.6-0.4c-0.4-0.2-0.8-0.6-1.1-1c-0.3-0.5-0.5-1-0.8-1.6
			c-0.2-0.6-0.4-1.1-0.5-1.5l-4.6-13.6c-0.5-1.3-0.7-2.2-0.7-2.7c0-0.6,0.2-1.2,0.7-1.6c0.5-0.5,1.1-0.7,1.8-0.7
			c0.9,0,1.6,0.3,1.9,0.8c0.3,0.5,0.7,1.5,1.1,2.8l3.7,12.7l3.4-11.8c0.4-1.2,0.6-2.1,0.8-2.5s0.5-0.9,1-1.3c0.5-0.4,1.1-0.6,2-0.6
			c0.8,0,1.5,0.2,2,0.6c0.5,0.4,0.8,0.8,1,1.3c0.2,0.5,0.5,1.3,0.8,2.5l3.4,11.8l3.7-12.7c0.2-0.9,0.4-1.6,0.6-2
			c0.2-0.4,0.4-0.8,0.8-1.1c0.4-0.3,0.9-0.5,1.6-0.5c0.7,0,1.3,0.2,1.8,0.7c0.5,0.5,0.7,1,0.7,1.7
			C212.5,286.1,212.3,287,211.8,288.2z M246.5,288.2l-4.6,13.6c-0.4,1.1-0.7,2-0.9,2.5c-0.2,0.5-0.6,1-1.1,1.4
			c-0.5,0.4-1.1,0.6-2,0.6c-0.9,0-1.5-0.2-2-0.7c-0.5-0.4-0.9-1-1.1-1.6c-0.2-0.6-0.5-1.4-0.8-2.4l-3.2-11.1l-3.1,11.1
			c-0.4,1.5-0.9,2.7-1.4,3.5c-0.5,0.8-1.3,1.2-2.6,1.2c-0.6,0-1.2-0.1-1.6-0.4s-0.8-0.6-1.1-1c-0.3-0.5-0.5-1-0.8-1.6
			c-0.2-0.6-0.4-1.1-0.5-1.5l-4.6-13.6c-0.5-1.3-0.7-2.2-0.7-2.7c0-0.6,0.2-1.2,0.7-1.6c0.5-0.5,1.1-0.7,1.8-0.7
			c0.9,0,1.6,0.3,1.9,0.8c0.3,0.5,0.7,1.5,1.1,2.7l3.7,12.7l3.4-11.8c0.4-1.2,0.6-2.1,0.8-2.5c0.2-0.5,0.5-0.9,1-1.3
			c0.5-0.4,1.1-0.6,2-0.6c0.8,0,1.5,0.2,2,0.6c0.5,0.4,0.8,0.8,1,1.3c0.2,0.5,0.5,1.3,0.8,2.5l3.4,11.8l3.7-12.7
			c0.2-0.9,0.4-1.6,0.6-2c0.2-0.4,0.4-0.8,0.8-1.1c0.4-0.3,0.9-0.5,1.6-0.5c0.7,0,1.3,0.2,1.8,0.7c0.5,0.5,0.7,1,0.7,1.7
			C247.2,286.1,247,287,246.5,288.2z M281.2,288.2l-4.6,13.6c-0.4,1.1-0.7,2-0.9,2.5c-0.2,0.5-0.6,1-1,1.4c-0.5,0.4-1.1,0.6-2,0.6
			c-0.9,0-1.5-0.2-2-0.7c-0.5-0.4-0.9-1-1.1-1.6c-0.2-0.6-0.5-1.4-0.8-2.4l-3.2-11.1l-3.1,11.1c-0.4,1.5-0.9,2.7-1.3,3.5
			c-0.5,0.8-1.3,1.2-2.6,1.2c-0.6,0-1.2-0.1-1.6-0.4c-0.4-0.2-0.8-0.6-1.1-1c-0.3-0.5-0.5-1-0.8-1.6c-0.2-0.6-0.4-1.1-0.5-1.5
			l-4.6-13.6c-0.5-1.3-0.7-2.2-0.7-2.7c0-0.6,0.2-1.2,0.7-1.6c0.5-0.5,1.1-0.7,1.8-0.7c0.9,0,1.6,0.3,1.9,0.8
			c0.3,0.5,0.7,1.5,1.1,2.8l3.7,12.7l3.4-11.8c0.4-1.2,0.6-2.1,0.8-2.5c0.2-0.5,0.5-0.9,1-1.3c0.5-0.4,1.1-0.6,2-0.6s1.5,0.2,2,0.6
			c0.5,0.4,0.8,0.8,1,1.3c0.2,0.5,0.5,1.3,0.8,2.5l3.4,11.8l3.7-12.7c0.2-0.9,0.4-1.6,0.6-2c0.2-0.4,0.4-0.8,0.8-1.1
			c0.4-0.3,0.9-0.5,1.6-0.5c0.7,0,1.3,0.2,1.8,0.7c0.5,0.5,0.7,1,0.7,1.7C281.8,286.1,281.6,287,281.2,288.2z M283.4,208.2
			c-12.2,12.2-30.8,14.1-45.1,5.7l-30.2,30.2l10.9,10.9c2.4,2.4,2.4,6.3,0,8.7l-4.4,4.4c-2.4,2.4-6.3,2.4-8.7,0l-10.9-10.9
			l-10.2,10.2c-2.4,2.4-6.3,2.4-8.7,0l-4.4-4.4c-2.4-2.4-2.4-6.3,0-8.7l53.5-53.5c-8.4-14.2-6.5-32.9,5.7-45.1
			c14.5-14.5,38-14.5,52.5,0C297.9,170.2,297.9,193.8,283.4,208.2z"/>
	</g>
</g>
</svg>
