<?xml version="1.0" encoding="utf-8"?>
<!-- Generator: Adobe Illustrator 21.1.0, SVG Export Plug-In . SVG Version: 6.00 Build 0)  -->
<svg version="1.1" id="Capa_1" xmlns="http://www.w3.org/2000/svg" xmlns:xlink="http://www.w3.org/1999/xlink" x="0px" y="0px"
	 viewBox="0 0 512 512" style="enable-background:new 0 0 512 512;" xml:space="preserve">
<style type="text/css">
	.st0{fill:#FFFFFF;}
</style>
<g>
	<g>
		<path class="st0" d="M355.3,157.7c6.8,0,12.3-5.5,12.3-12.3s-5.5-12.3-12.3-12.3s-12.3,5.5-12.3,12.3S348.6,157.7,355.3,157.7z"/>
		<path class="st0" d="M133.1,373.8h266.2V169H133.1V373.8z M314.3,322.5c0,9.6,0,19.2,0,28.8c-13.1-14-26.2-28-39.2-42.1
			c2.6-2.1,4.4-4.8,6.3-7.6c2.2,0.5,4.3,1.5,6.5,2c4.3,1,9,0.3,12.8-1.9c5.1-2.9,8.3-8.6,8.7-14.4c11.3,11.7,22.4,23.5,33.6,35.2
			C333.4,322.5,323.9,322.4,314.3,322.5z M227.2,244.2c-2.1-3-4.3-5.9-6.4-8.9c-1.1-1.6-0.3-4.1,1.6-4.7c3.4-1.2,6.9-2.3,10.4-3.4
			c2.5-0.8,4.3-3.2,4.6-5.8c0.1-3.9,0-7.8,0.1-11.7c0.1-2,2.2-3.4,4-2.8c3.5,1,6.9,2.2,10.4,3.3c2.8,0.9,6.1-0.3,7.8-2.8
			c1.8-2.6,3.7-5.1,5.6-7.7c0.6-0.8,1.3-1.6,2.2-1.9c1.4-0.5,2.9,0.3,3.7,1.4c2,2.8,4,5.5,6.1,8.3c1.7,2.3,4.9,3.5,7.7,2.6
			c3.5-1.1,6.9-2.3,10.4-3.3c1.9-0.6,3.9,0.9,4,2.9c0.1,3.6,0.1,7.2,0.1,10.8c-0.1,2.9,1.9,5.6,4.5,6.6c3.5,1.2,7.1,2.2,10.6,3.5
			c1.8,0.7,2.6,3.1,1.5,4.7c-2,3-4.3,5.9-6.4,8.9c-1.6,2.2-1.6,5.4-0.2,7.7c2.2,3,4.4,6,6.5,9.1c1.1,1.6,0.5,4-1.3,4.8
			c-3.5,1.3-7.1,2.3-10.6,3.5c-2.5,0.8-4.4,3.2-4.6,5.8c-0.1,3.8,0,7.6-0.1,11.4c0,2-2,3.7-4,3.1c-3.5-1-6.9-2.2-10.4-3.3
			c-2.7-0.9-5.9,0.1-7.6,2.4c-2.2,2.9-4.3,5.9-6.5,8.8c-1.2,1.6-3.8,1.6-5,0c-2.2-2.9-4.3-5.9-6.5-8.8c-1.7-2.3-5-3.3-7.8-2.4
			c-3.3,1.1-6.6,2.2-10,3.2c-2,0.7-4.3-0.9-4.3-3c0-3.5,0-7,0-10.5c0.1-2.9-1.9-5.8-4.7-6.7c-3.4-1.2-6.9-2.2-10.4-3.4
			c-1.9-0.6-2.7-3.1-1.6-4.7c2-3,4.3-5.9,6.4-8.9C228.8,249.9,228.8,246.5,227.2,244.2z M219.4,291.1c1.9,7.3,9,12.9,16.6,12.9
			c3.8,0.2,7.2-1.4,10.8-2.4c2.5,3.5,5.1,7.3,9,9.3c-12.5,13.4-25,26.8-37.4,40.3c0-9.6,0-19.2,0-28.8c-9.6-0.1-19.2,0-28.8,0
			C199.4,312,209.3,301.4,219.4,291.1z"/>
		<circle class="st0" cx="321.5" cy="145.4" r="12.3"/>
		<circle class="st0" cx="389.1" cy="145.4" r="12.3"/>
		<path class="st0" d="M256,0C114.6,0,0,114.6,0,256s114.6,256,256,256s256-114.6,256-256S397.4,0,256,0z M419.8,375.8
			c0,10.2-8.2,18.4-18.4,18.4H131.1c-10.2,0-18.4-8.2-18.4-18.4V141.3c0-10.2,8.3-18.4,18.4-18.4h270.3c10.2,0,18.4,8.3,18.4,18.4
			V375.8z"/>
	</g>
</g>
</svg>
