<?xml version="1.0" encoding="utf-8"?>
<!-- Generator: Adobe Illustrator 21.1.0, SVG Export Plug-In . SVG Version: 6.00 Build 0)  -->
<svg version="1.1" id="Capa_1" xmlns="http://www.w3.org/2000/svg" xmlns:xlink="http://www.w3.org/1999/xlink" x="0px" y="0px"
	 viewBox="0 0 512 512" style="enable-background:new 0 0 512 512;" xml:space="preserve">
<style type="text/css">
	.st0{fill:#FFFFFF;}
</style>
<circle class="st0" cx="351.3" cy="255.5" r="13"/>
<circle class="st0" cx="351.3" cy="342" r="13"/>
<circle class="st0" cx="316.7" cy="255.5" r="13"/>
<path class="st0" d="M256.2-0.5c-141.4,0-256,114.6-256,256s114.6,256,256,256s256-114.6,256-256S397.6-0.5,256.2-0.5z M394.5,359.3
	c0,9.6-7.7,17.3-17.3,17.3H135.1c-9.6,0-17.3-7.7-17.3-17.3v-34.6c0-9.6,7.7-17.3,17.3-17.3h242.1c9.6,0,17.3,7.7,17.3,17.3V359.3z
	 M394.5,272.8c0,9.6-7.7,17.3-17.3,17.3H135.1c-9.6,0-17.3-7.7-17.3-17.3v-34.6c0-9.6,7.7-17.3,17.3-17.3h242.1
	c9.6,0,17.3,7.7,17.3,17.3V272.8z M394.5,186.4c0,9.6-7.7,17.3-17.3,17.3H135.1c-9.6,0-17.3-7.7-17.3-17.3v-34.6
	c0-9.6,7.7-17.3,17.3-17.3h242.1c9.6,0,17.3,7.7,17.3,17.3V186.4z"/>
<circle class="st0" cx="316.7" cy="169.1" r="13"/>
<circle class="st0" cx="316.7" cy="342" r="13"/>
<circle class="st0" cx="351.3" cy="169.1" r="13"/>
</svg>
