<?xml version="1.0" encoding="utf-8"?>
<!-- Generator: Adobe Illustrator 21.1.0, SVG Export Plug-In . SVG Version: 6.00 Build 0)  -->
<svg version="1.1" id="Capa_1" xmlns="http://www.w3.org/2000/svg" xmlns:xlink="http://www.w3.org/1999/xlink" x="0px" y="0px"
	 viewBox="0 0 512 512" style="enable-background:new 0 0 512 512;" xml:space="preserve">
<style type="text/css">
	.st0{fill:#FFFFFF;}
</style>
<g>
	<g>
		<path class="st0" d="M336.2,128.8c0,0,1.5-6.4,13.4-13.4c0,0-12.5-1.9-18.9,8.5C334.9,127.3,336.2,128.8,336.2,128.8z"/>
		<path class="st0" d="M256,0C114.6,0,0,114.6,0,256s114.6,256,256,256s256-114.6,256-256S397.4,0,256,0z M358.6,113.9
			c8.3,6.6,8,20.7-0.7,31.4L255.4,256.9c-8.6,10.7-6.6,10.2-14.9,3.6c-8.2-6.6-8.3-4.6,0.3-15.3L328,121.3
			C336.7,110.6,350.4,107.3,358.6,113.9z M236.7,289c-28.5,11.8-69.4,2.6-52.4,2.5s19.1-4.2,24.7-21.3
			C219.2,243.2,265.2,277.2,236.7,289z M301,401.3c-4,0.5-42.2,0-45,0c-2.8,0-41,0.5-45,0c-4.2-0.6,0-3.9,5.3-7.8s5.9-10.9,5.9-10.9
			l2-13.9h63.6l2,13.9c0,0,0.6,6.4,5.9,10.4C301,396.8,305.2,400.7,301,401.3z M409.6,346.3c0,6.8-5.5,12.1-12.3,12.1H114.7
			c-6.8,0-12.3-5.3-12.3-12.1V168.1c0-6.8,5.5-14.5,12.3-14.5h176.4l-13,20.5H122.9v148.5h266.2V174.1H342l16.9-20.5h38.4
			c6.8,0,12.3,7.7,12.3,14.5L409.6,346.3L409.6,346.3z"/>
	</g>
</g>
</svg>
