<?xml version="1.0" encoding="utf-8"?>
<!-- Generator: Adobe Illustrator 21.1.0, SVG Export Plug-In . SVG Version: 6.00 Build 0)  -->
<svg version="1.1" id="Capa_1" xmlns="http://www.w3.org/2000/svg" xmlns:xlink="http://www.w3.org/1999/xlink" x="0px" y="0px"
	 viewBox="0 0 512 512" style="enable-background:new 0 0 512 512;" xml:space="preserve">
<style type="text/css">
	.st0{fill:#1076CA;}
</style>
<g>
	<g>
		<circle class="st0" cx="389.1" cy="145.4" r="12.3"/>
		<path class="st0" d="M133.1,373.8h266.2V169H133.1V373.8z M291.8,284.1l46.7-18.3l-46.7-18.1V229l66.6,28.8v15.9l-66.6,29.1V284.1
			z M250.3,302.1l18.5-76.6c1-4.1,1.9-6.9,2.8-8.4c0.9-1.5,2.6-2.3,5.2-2.3c2.2,0,3.9,0.5,5.1,1.6c1.2,1.1,1.8,2.5,1.8,4.4
			c0,1.4-0.5,3.9-1.4,7.5l-18.6,76.6c-0.6,2.5-1.2,4.5-1.6,6c-0.5,1.5-1.2,2.6-2.1,3.4c-1,0.8-2.3,1.2-4.2,1.2c-4.5,0-6.8-2-6.8-5.8
			C248.9,308.7,249.4,306.2,250.3,302.1z M174.1,257.7l66.6-29v18.9l-46.6,17.9l46.6,18.3v18.8l-66.6-29V257.7z"/>
		<path class="st0" d="M256,0C114.6,0,0,114.6,0,256s114.6,256,256,256c141.4,0,256-114.6,256-256S397.4,0,256,0z M419.8,375.8
			c0,10.2-8.2,18.4-18.4,18.4H131.1c-10.2,0-18.4-8.2-18.4-18.4V141.3c0-10.2,8.3-18.4,18.4-18.4h270.3c10.2,0,18.4,8.3,18.4,18.4
			V375.8z"/>
		<circle class="st0" cx="321.5" cy="145.4" r="12.3"/>
		<path class="st0" d="M355.3,157.7c6.8,0,12.3-5.5,12.3-12.3c0-6.8-5.5-12.3-12.3-12.3c-6.8,0-12.3,5.5-12.3,12.3
			C343,152.2,348.6,157.7,355.3,157.7z"/>
	</g>
</g>
</svg>
